<svg width="401" height="227" viewBox="0 0 401 227" fill="none" xmlns="http://www.w3.org/2000/svg">
<rect y="1.09888" width="400" height="225" rx="40" transform="rotate(-0.157414 0 1.09888)" fill="#FFBA10"/>
<path d="M54.9999 172.602L57.0722 52.6016L85.493 52.6016L98.6673 122.379L112.878 52.6016L140.262 52.6016L142.335 172.602L123.535 172.602L121.315 92.7497L107.401 172.602L90.6739 172.602L75.8714 92.1571L74.0951 172.602L54.9999 172.602Z" fill="#1E1919"/>
<path d="M154.297 172.602L154.297 52.6016L180.793 52.6016L180.793 101.639L200.924 52.6016L226.829 52.6016L204.625 106.824L227.865 172.602L200.924 172.602L183.605 119.565L180.793 124.305L180.793 172.602L154.297 172.602Z" fill="#1E1919"/>
<path d="M249.089 172.602L249.089 72.3053L231.03 72.3053L231.03 52.6016L293.645 52.6016L293.645 72.3053L275.734 72.3053L275.734 172.602L249.089 172.602Z" fill="#1E1919"/>
<path d="M318.355 172.602L318.355 72.3053L300.296 72.3053L300.296 52.6016L345 52.6016L345 72.3053L345 172.602L318.355 172.602Z" fill="#1E1919"/>
</svg>
