<svg width="108" height="26" viewBox="0 0 108 26" fill="none" xmlns="http://www.w3.org/2000/svg">
<g clip-path="url(#clip0_2386_16223)">
<path d="M32.739 14.2403V25.1448H26.2174V23.4407C26.2174 17.5256 29.137 14.2403 32.739 14.2403ZM22.5157 2.5276V0.823486H15.9941V11.7279C19.5961 11.7279 22.5157 8.44263 22.5157 2.5276Z" fill="url(#paint0_linear_2386_16223)"/>
<path d="M52.4348 0.823486H58.9563V25.1764H52.4348V0.823486ZM69.1778 0.823486H62.6562V25.1764H81.5607V18.5704H69.1778V0.823486ZM100.106 0.823486L93.1615 12.1675L86.2351 0.823486H78.3434L89.2157 18.6468L85.2384 25.1764H93.1301L108 0.823486H100.108H100.106ZM36.5738 0.823486C28.7321 0.823486 24.7973 6.5113 21.6355 11.0835C18.4663 15.6632 16.314 18.4717 12.1592 18.4717C9.25994 18.4717 6.65651 17.4753 6.65651 11.564V0.823486H0V11.564C0 16.2797 1.21481 19.8462 3.60746 22.1649C5.67098 24.1633 8.54807 25.1764 12.1574 25.1764C19.9991 25.1764 23.9338 19.4867 27.0957 14.9164C30.2649 10.3367 32.4172 7.52818 36.572 7.52818C39.7745 7.52818 42.0747 9.97726 42.0747 14.2496V25.1764H48.7312V14.2496C48.7312 10.2138 47.5182 6.8037 45.2217 4.38629C43.0399 2.08807 39.9686 0.823486 36.5738 0.823486Z" fill="#0C0320"/>
</g>
<defs>
<linearGradient id="paint0_linear_2386_16223" x1="15.9588" y1="0.823486" x2="32.8741" y2="25.0267" gradientUnits="userSpaceOnUse">
<stop stop-color="#441BFF"/>
<stop offset="1" stop-color="#33098E"/>
</linearGradient>
<clipPath id="clip0_2386_16223">
<rect width="108" height="24.3529" fill="white" transform="translate(0 0.823486)"/>
</clipPath>
</defs>
</svg>
